<svg width="512" height="512" viewBox="0 0 512 512" fill="none" xmlns="http://www.w3.org/2000/svg">
    <rect width="512" height="512" rx="100" fill="#2E8B57"/>

    <path d="M256 426C256 426 400 354 400 210V114L256 66L112 114V210C112 354 256 426 256 426Z" fill="#003c9c"/>

    <path d="M256 295.5C256 295.5 336 251.5 336 198.5C336 175.5 318 158.5 296 158.5C278 158.5 264 170.5 256 182.5C248 170.5 234 158.5 216 158.5C194 158.5 176 175.5 176 198.5C176 251.5 256 295.5 256 295.5Z" fill="#d45b5b"/>
</svg>